# xmcd
#
# Track frame offsets:
#	150
#	11317
#	21185
#	39394
#	65304
#	78529
#	95006
#	106987
#	120053
#	131992
#	149655
#	160015
#	169802
#	180625
#	197255
#	207353
#	218578
#	230658
#
# Disc length: 3269 seconds
# Revision: 3
# Processed by: cddbd v1.5.2PL0 Copyright (c) Steve Scherf et al.
# Submitted via: dBpowerAMP V12.0
#
DISCID=ee0cc312
DTITLE=John Lee Hooker - Boom Boom [CD 1)
DYEAR=2004
DGENRE=Blues
TTITLE0=Boom Boom
TTITLE1=Dimples
TTITLE2=House Rent Boogie
TTITLE3=Drug Store Woman
TTITLE4=I Love You Baby
TTITLE5=Mama, You Got a Daughter
TTITLE6=Frisco
TTITLE7=I'm So Excited
TTITLE8=Whiskey And Wimmen
TTITLE9=Wednesday Evenin' Blues
TTITLE10=Old Time Shimmy
TTITLE11=Onions
TTITLE12=Send Me Your Pillow
TTITLE13=Process
TTITLE14=I Wanna Walk
TTITLE15=You've Taken My Woman
TTITLE16=I'm Mad Again
TTITLE17=Moanin' Blues
EXTD=
EXTT0=
EXTT1=
EXTT2=
EXTT3=
EXTT4=
EXTT5=
EXTT6=
EXTT7=
EXTT8=
EXTT9=
EXTT10=
EXTT11=
EXTT12=
EXTT13=
EXTT14=
EXTT15=
EXTT16=
EXTT17=
PLAYORDER=
